<?xml version="1.0" encoding="UTF-8"?>
<svg id="Layer_2" data-name="Layer 2" xmlns="http://www.w3.org/2000/svg" viewBox="0 0 1200 245.81">
  <defs>
    <style>
      .cls-1 {
        fill: #29abe2;
      }
    </style>
  </defs>
  <g id="Layer_1-2" data-name="Layer 1">
    <g>
      <g>
        <path class="cls-1" d="m325.01,107.05h0c5.15-3.6,8.23-9.46,8.23-15.74,0-10.75-9.36-18.78-21.96-18.78h-30.2v73.04h31.05c12.69,0,22.99-9.36,22.99-21.08,0-7.72-3.66-14.06-10.11-17.45Zm-28.4-21.06h13.17c4.96,0,8.14,3.21,8.14,7.79,0,4.56-3.16,7.79-8.14,7.79h-13.17v-15.58Zm14.03,45.08h-14.03v-16.38h14.03c5.2,0,8.62,3.45,8.62,8.15s-3.43,8.23-8.62,8.23Z"/>
        <polygon class="cls-1" points="363.86 72.54 348.06 72.54 348.06 145.58 391.89 145.58 391.89 130.91 363.86 130.91 363.86 72.54"/>
        <path class="cls-1" d="m434.48,70.94c-22.29,0-38.98,16.43-38.98,38.11s16.68,38.11,38.98,38.11,38.81-16.34,38.81-38.11-16.6-38.11-38.81-38.11Zm0,61.32c-13.02,0-22.97-10.05-22.97-23.2s9.95-23.2,22.97-23.2,22.8,9.95,22.8,23.2-9.78,23.2-22.8,23.2Z"/>
        <path class="cls-1" d="m519.17,132.07c-12.36,0-21.7-9.79-21.7-22.93s9.34-23.1,21.7-23.1c9.21,0,16.51,5.39,19.5,14.01h15.84c-3.39-17.33-17.57-29.09-35.34-29.09-21.45,0-37.72,16.44-37.72,38.18s16.27,38.01,37.72,38.01h0c18.09,0,32.27-12.08,35.57-30.14h-15.93c-2.63,9.25-10.04,15.05-19.65,15.05Z"/>
        <polygon class="cls-1" points="624.28 72.54 605.86 72.54 581.92 106.27 581.92 72.54 566.11 72.54 566.11 145.58 581.92 145.58 581.92 109.93 607.71 145.58 626.99 145.58 599.43 107.53 624.28 72.54"/>
        <path class="cls-1" d="m701.44,107.05h0c5.14-3.6,8.23-9.46,8.23-15.74,0-10.75-9.36-18.78-21.96-18.78h-30.2v73.04h31.05c12.69,0,22.99-9.36,22.99-21.08,0-7.72-3.66-14.06-10.11-17.45Zm-28.4-21.06h13.17c4.96,0,8.14,3.21,8.14,7.79,0,4.56-3.16,7.79-8.14,7.79h-13.17v-15.58Zm14.03,45.08h-14.03v-16.38h14.03c5.2,0,8.62,3.45,8.62,8.15s-3.43,8.23-8.62,8.23Z"/>
        <path class="cls-1" d="m768.27,117.36c0,9.12-5.95,14.9-14.34,14.9s-14.36-5.78-14.36-14.9v-44.82h-15.82v45.55c0,17.12,12.91,29.08,30.18,29.08s30.17-11.96,30.17-29.08v-45.55h-15.82v44.82Z"/>
        <rect class="cls-1" x="800.03" y="72.54" width="15.8" height="73.04"/>
        <polygon class="cls-1" points="848.38 72.54 832.58 72.54 832.58 145.58 876.41 145.58 876.41 130.91 848.38 130.91 848.38 72.54"/>
        <path class="cls-1" d="m914.67,72.54h-27.63v73.04h27.63c21.41,0,37.04-15.42,37.04-36.61s-15.55-36.44-37.04-36.44Zm-.4,58.38h-11.43v-43.71h11.43c12.55,0,21.26,8.92,21.26,21.77s-8.71,21.94-21.26,21.94Z"/>
        <path class="cls-1" d="m1033.22,107.05h0c5.14-3.6,8.23-9.46,8.23-15.74,0-10.75-9.36-18.78-21.96-18.78h-30.2v73.04h31.05c12.69,0,22.99-9.36,22.99-21.08,0-7.72-3.66-14.06-10.11-17.45Zm-28.4-21.06h13.17c4.96,0,8.14,3.21,8.14,7.79,0,4.56-3.16,7.79-8.14,7.79h-13.17v-15.58Zm14.03,45.08h-14.03v-16.38h14.03c5.2,0,8.62,3.45,8.62,8.15s-3.43,8.23-8.62,8.23Z"/>
        <path class="cls-1" d="m1090.94,70.94c-22.29,0-38.98,16.43-38.98,38.11s16.69,38.11,38.98,38.11,38.81-16.34,38.81-38.11-16.6-38.11-38.81-38.11Zm0,61.32c-13.02,0-22.97-10.05-22.97-23.2s9.95-23.2,22.97-23.2,22.79,9.95,22.79,23.2-9.78,23.2-22.79,23.2Z"/>
        <path class="cls-1" d="m1183.84,117.96c8.08-3.9,13.31-11.71,13.31-21.26,0-14.09-10.91-24.16-25.54-24.16h-29.48v73.04h15.8v-24.93h10.14l14.27,24.93h17.65l-16.16-27.62Zm-13.26-11.91h-12.64v-18.91h12.64c6.61,0,10.56,3.99,10.56,9.46s-3.95,9.46-10.56,9.46Z"/>
      </g>
      <g>
        <polygon class="cls-1" points="680.71 191.14 672 171.92 666.51 171.92 657.74 191.26 648.28 171.92 641.33 171.92 654.58 198.97 660.79 198.97 669.26 180.26 677.73 198.97 683.74 198.97 695.72 171.92 689.19 171.92 680.71 191.14"/>
        <polygon class="cls-1" points="701.4 198.97 728.45 198.97 728.45 193.36 707.5 193.36 707.5 187.99 727.45 187.99 727.45 182.39 707.5 182.39 707.5 177.52 728.45 177.52 728.45 171.92 701.4 171.92 701.4 198.97"/>
        <rect class="cls-1" x="741.69" y="185.38" width="15.08" height="5.61"/>
        <path class="cls-1" d="m802.04,185.97c-.31-.52-.68-.97-1.09-1.34-.18-.16-.37-.31-.56-.45.33-.36.63-.79.87-1.28.24-.48.44-1.05.58-1.68.14-.62.21-1.33.21-2.1,0-1.02-.1-1.96-.29-2.79-.23-1-.71-1.85-1.43-2.54-.68-.65-1.62-1.14-2.79-1.46-1.04-.28-2.4-.42-4.02-.42h-21.52v27.05h19.49c1.55,0,2.92-.07,4.05-.21,1.19-.15,2.22-.39,3.07-.7.93-.34,1.71-.8,2.31-1.36.6-.56,1.07-1.22,1.4-1.97.3-.69.5-1.47.59-2.31.08-.75.13-1.58.13-2.46,0-.82-.09-1.57-.27-2.23-.18-.66-.43-1.25-.73-1.76Zm-6.17-5.46h0c-.04.32-.12.51-.18.61-.06.1-.13.17-.23.24-.12.07-.35.18-.77.27-.44.1-.99.16-1.64.2-.71.04-1.57.06-2.55.06h-12.39v-4.37h14.42c.93,0,1.69.04,2.27.11.55.07.8.18.91.24.06.04.08.07.11.14.06.17.13.5.13,1.11,0,.55-.03,1.02-.08,1.4Zm-.44,7.22h0c.55.1.85.21,1,.29.17.09.23.16.26.2.05.08.12.22.17.47.06.34.09.76.09,1.26,0,.68-.03,1.25-.09,1.71-.05.33-.13.61-.23.81-.07.13-.17.23-.3.31-.11.07-.39.21-.92.31-.51.1-1.16.17-1.92.2-.84.03-1.84.05-2.96.05h-12.39v-5.86h12.39c1.14,0,2.14.02,2.96.05.79.03,1.45.1,1.96.19Z"/>
        <path class="cls-1" d="m839,182.65c.12-.61.18-1.35.18-2.19,0-1.3-.13-2.44-.39-3.39-.28-1.03-.73-1.92-1.33-2.65-.61-.74-1.38-1.32-2.3-1.74-.82-.38-1.79-.66-2.88-.85-1.03-.18-2.2-.29-3.47-.34-2.79-.11-6.4-.07-8.31-.04-1.32.02-2.54.1-3.63.24-1.16.15-2.19.39-3.09.73-1,.38-1.87.93-2.56,1.66-.7.73-1.23,1.65-1.58,2.74-.32,1.02-.49,2.24-.49,3.65v1.56h6.1v-1.56c0-.68.02-1.28.05-1.77.03-.37.11-.59.17-.71.02-.03.08-.14.32-.26.16-.08.56-.25,1.4-.38.75-.12,1.73-.2,2.91-.25,1.27-.05,2.8-.07,4.56-.07,1.32,0,2.48,0,3.48.02.94.01,1.77.06,2.45.15.6.08,1.1.19,1.46.34.24.1.41.21.53.37.14.19.26.46.33.79.1.46.15,1.06.15,1.77,0,.76-.07,1.18-.13,1.4-.08.28-.15.36-.16.36-.01.01-.05.05-.16.07-.27.06-.59.09-.98.09h-12.54v5.6h12.54c.38,0,.71.03.97.09.07.01.08.03.1.05.01.01.12.14.21.54.07.28.14.81.14,1.74,0,.72-.05,1.32-.15,1.77-.07.34-.19.61-.33.79-.12.16-.29.27-.53.37-.37.15-.86.26-1.46.34-.68.09-1.5.14-2.45.15-1,.02-2.16.02-3.48.02-1.78,0-3.32-.03-4.56-.08-1.18-.05-2.16-.14-2.89-.27-.83-.15-1.21-.32-1.37-.41-.22-.13-.29-.24-.33-.32-.11-.22-.18-.53-.21-.9-.04-.55-.06-1.2-.06-1.94v-1.56h-6.1v1.56c0,1.48.16,2.77.48,3.83.34,1.13.86,2.09,1.55,2.85.69.77,1.56,1.36,2.56,1.76.9.36,1.95.63,3.1.79,1.09.15,2.32.24,3.65.26,1.28.02,2.67.03,4.18.03s2.91-.02,4.13-.07c1.28-.05,2.45-.16,3.48-.34,1.08-.19,2.05-.47,2.88-.85.92-.42,1.69-1.01,2.3-1.74.6-.73,1.05-1.62,1.33-2.65.26-.95.39-2.09.39-3.38,0-.83-.06-1.58-.17-2.24-.12-.71-.32-1.34-.58-1.89-.18-.38-.4-.73-.65-1.03.23-.25.43-.53.6-.83.29-.51.5-1.11.62-1.79Z"/>
        <rect class="cls-1" x="286.53" y="185.38" width="324.04" height="5.61"/>
        <rect class="cls-1" x="869.95" y="185.38" width="324.6" height="5.61"/>
      </g>
      <g>
        <path class="cls-1" d="m105.1,0L0,61.49v122.85l79.37,46.42,16.41,9.6,9.31,5.44,105.07-61.47V61.49L105.1,0Zm94.57,178.31l-94.57,55.33-9.31-5.44-16.41-9.6L10.51,178.31v-46.09l-.06-8.7.06-8.07v-47.94L105.1,12.17l94.57,55.35v110.79Z"/>
        <path class="cls-1" d="m130.48,179.82l-25.41,14.33-9.29-5.4v21.04l9.14,5.48.17.11,9.29-6.2,16.1-9.1,53.63-30.64v-36.59l-8.7-8.99,8.7-7.78v-37.53l-52.68-30.13v68l-8.95,6.41,8.01,10.57v46.42Zm18.91-99.93l16.73,9.41v25.7h-16.73v-35.12Zm0,52.77h16.73v26.02l-16.73,10.05v-36.06Z"/>
        <path class="cls-1" d="m104.93,33.25l-9.14,5.55-17.04,9.1-52.52,31.21-.17.08v88.68l53.32,32.05v-67.69l-8.7-8.7,8.07-8.07v-44.97l17.04-10.45,9.14-5.57,9.46,5.23v-21.04l-9.31-5.32-.15-.11Zm-43.21,135.48l-17.36-10.05v-26.02h17.36v36.06Zm0-53.71h-17.36v-26.63l17.36-8.53v35.16Z"/>
        <polygon class="cls-1" points="114.38 79.16 104.93 74.29 95.79 79.18 95.79 115.62 114.38 115.62 114.38 79.16"/>
        <polygon class="cls-1" points="95.79 169.44 105.08 174.68 114.38 169.44 114.38 132.04 95.79 132.04 95.79 169.44"/>
      </g>
    </g>
  </g>
</svg>